<svg xmlns="http://www.w3.org/2000/svg" width="256" height="256"><path fill="#1976D2" fill-opacity=".09" fill-rule="evenodd" d="M0 128.004v128.004l128.25-.254 128.25-.254.254-127.75L257.008 0H0zm.485.496c0 70.4.119 99.053.265 63.672s.146-92.98 0-128S.485 58.1.485 128.5"/><path fill="#1976D2" fill-opacity=".384" fill-rule="evenodd" d="M0 128.004v128.004l128.25-.254 128.25-.254.254-127.75L257.008 0H0zm.485.496c0 70.4.119 99.053.265 63.672s.146-92.98 0-128S.485 58.1.485 128.5m42.636-77.79c-4.67 2.301-7.114 6.694-7.114 12.79 0 6.173 2.486 10.557 7.276 12.83 9.191 4.362 18.909-1.158 20.333-11.549 1.526-11.128-10.169-19.158-20.495-14.071M116.5 51c-.34.55-2.21 1-4.155 1s-4.731.609-6.191 1.352S99.675 56.514 95 58.726c-5.96 2.82-10.662 6.026-15.735 10.727-8.102 7.51-7.888 5.932-2.104 15.547 1.158 1.925 3.442 5.975 5.074 9s3.544 6.175 4.248 7 1.57 2.453 1.924 3.618 1.524 2.915 2.6 3.888c1.599 1.448 2.232 1.541 3.474.51.836-.694 1.519-1.704 1.519-2.245s1.35-2.688 3-4.771 3-4.23 3-4.771.736-1.595 1.636-2.342 2.689-3.025 3.976-5.064c1.286-2.038 3.95-4.47 5.918-5.404 3.669-1.741 3.832-1.718 10.438 1.536 2.217 1.091 4.635 5.768 7.005 13.545 1.172 3.85 2.528 7.732 3.011 8.627s1.167 3.145 1.519 5 1.283 4.248 2.07 5.317c1.386 1.883 1.541 1.838 4.929-1.446 1.924-1.865 3.498-3.984 3.498-4.709s1.463-2.237 3.25-3.359c2.527-1.587 4.455-1.952 8.666-1.64 6.265.465 8.438 2.415 10.094 9.055.57 2.285 1.418 4.845 1.886 5.688s1.184 3.093 1.592 5 1.089 3.917 1.512 4.467 1.091 2.575 1.483 4.5c1.009 4.939 3.491 13.18 4.589 15.236 1.57 2.939 1.074 12.009-.827 15.114-1.938 3.165-9.055 6.24-10.682 4.613-.529-.529-1.689-.963-2.576-.963-2.444 0-6.684-5.063-7.509-8.967-.403-1.907-1.115-4.157-1.582-5s-1.323-3.427-1.9-5.741c-.578-2.314-1.482-4.474-2.01-4.801s-3.717 2.355-7.087 5.958c-5.432 5.806-6.553 6.551-9.866 6.551-7.059 0-10.739-4.065-14.033-15.5-1.347-4.677-3.559-10.393-4.315-11.148-.377-.377-.685-1.699-.685-2.937 0-5.002-3.283-7.564-4.698-3.665-.349.963-1.91 3.39-3.468 5.394S105 134.192 105 134.686s-2.036 2.896-4.525 5.338c-3.923 3.85-5.062 4.427-8.572 4.335-3.147-.083-4.836-.857-7.594-3.483-1.951-1.857-4.186-4.726-4.966-6.376s-2.728-5.025-4.33-7.5-3.651-5.942-4.555-7.704-2.276-3.73-3.05-4.372c-.774-.643-1.408-1.618-1.408-2.167 0-1.755-5.455-9.683-6.689-9.72-.654-.021-1.493 1.994-1.865 4.475-.372 2.482-1.075 4.759-1.561 5.059-1.155.714-1.155 25.144 0 25.858.486.3 1.187 2.689 1.557 5.309.582 4.117 3.782 12.397 6.672 17.262.49.825 1.354 2.58 1.92 3.899C67.683 168.742 78.676 182 80.213 182c.539 0 3.016 1.792 5.504 3.982 4.935 4.344 14.396 9.456 19.534 10.554 1.787.382 3.699 1.039 4.249 1.46s6.314 1.304 12.808 1.962c9.086.921 13.005.926 17 .019 9.337-2.118 17.711-4.95 22.882-7.738 2.793-1.507 6.256-3.365 7.694-4.131 1.439-.765 6.465-5.265 11.168-10 6.875-6.92 9.474-10.436 13.25-17.926 2.584-5.125 4.698-10.322 4.698-11.55s.563-2.794 1.25-3.48c2.125-2.122 2.319-31.835.255-38.918-2.183-7.489-6.226-16.659-9.714-22.034-1.535-2.365-2.791-4.625-2.791-5.022 0-1.054-11.912-12.41-15.996-15.248-4.544-3.158-8.663-5.552-13.004-7.557-1.925-.89-4.322-2.038-5.326-2.551-1.005-.514-4.055-1.198-6.78-1.521-2.724-.323-5.191-.972-5.482-1.444-.752-1.217-24.155-1.083-24.912.143"/><path fill="#1976D2" fill-opacity=".084" fill-rule="evenodd" d="M0 128v128h68.514L95.5 229c20.177-20.188 26.435-27 24.802-27-1.201 0-2.462-.45-2.802-1s-2.157-1-4.039-1c-6.428 0-21.912-7.004-28.707-12.985-2.508-2.208-4.963-4.015-5.455-4.015-1.24 0-8.299-7.346-8.299-8.637 0-.579-.949-1.91-2.108-2.958-2.102-1.9-4.407-5.771-7.384-12.405-.864-1.925-2.232-4.694-3.039-6.154-.808-1.46-1.469-3.733-1.469-5.05 0-1.318-.531-2.927-1.181-3.577-1.592-1.592-2.466-28.569-1.021-31.541.582-1.198 1.322-3.753 1.645-5.678 1.064-6.349 2.191-6.953 5.6-3 1.659 1.925 3.934 5.075 5.054 7s3.114 5.3 4.432 7.5c2.42 4.039 4.818 8.094 8.575 14.5 3.57 6.086 8.215 10.114 11.78 10.216 2.529.072 4.189-.852 7.671-4.27 2.445-2.4 4.445-4.766 4.445-5.26s1.237-2.54 2.75-4.546 3.248-4.546 3.857-5.644c1.733-3.124 4.099-2.965 5.835.392.857 1.657 1.578 3.823 1.602 4.812s.73 3.6 1.568 5.8 1.913 5.35 2.388 7c2.304 7.997 3.974 11.145 7.03 13.25 5.6 3.858 7.98 3.117 15.264-4.75 3.564-3.85 6.927-7 7.472-7s1.533 1.462 2.196 3.25c.663 1.787 1.56 3.94 1.994 4.783s1.114 3.011 1.511 4.817 1.277 4.355 1.955 5.663c1.223 2.357 1.301 2.31 8.906-5.34 7.319-7.362 9.27-11.067 6.672-12.673-.55-.34-1-1.589-1-2.776 0-1.913-1.656-7.364-4.018-13.224-.443-1.1-1.84-5.3-3.103-9.333-2.471-7.884-4.851-10.171-10.579-10.163-3.309.004-9.3 3.405-9.3 5.278 0 1.495-7.083 8.718-8.548 8.718-1.261 0-2.676-3.356-6.535-15.5-3.674-11.56-6.395-17.822-8.506-19.574-.819-.68-3.492-1.279-5.94-1.331-3.623-.077-4.918.409-6.961 2.611-1.381 1.489-2.51 3.098-2.51 3.576s-1.125 1.926-2.5 3.218-2.5 2.768-2.5 3.28c0 .513-1.275 2.572-2.834 4.576-1.558 2.004-3.123 4.442-3.477 5.417-.843 2.321-3.548 3.306-5.571 2.029-1.933-1.218-5.858-7.443-10.281-16.302-1.785-3.575-4.504-8.501-6.041-10.946S72 77.834 72 76.888c0-2.94 14.286-15.164 22.424-19.188 4.115-2.035 8.089-3.7 8.829-3.7s1.865-.518 2.498-1.151c2.123-2.123 10.639-3.223 25.249-3.263 13.417-.036 15.093.171 22.44 2.781 4.366 1.551 9.359 3.903 11.094 5.227 1.735 1.323 3.498 2.406 3.916 2.406C170.385 60 189 76.762 189 78.505c0 .283 1.575 2.756 3.5 5.495s3.5 5.436 3.5 5.993.9 2.693 2 4.746c1.1 2.052 2 4.419 2 5.26s.9 3.992 2 7.001 2 7.275 2 9.479v4.007l25.995-25.981 25.995-25.98.26 93.487c.24 86.06.28 83.338.505-34.262L257 0H0zm.485.5c0 70.4.119 99.053.265 63.672s.146-92.98 0-128S.485 58.1.485 128.5m41.188-78.295c-2.105 1.139-4.243 3.163-4.75 4.498-1.192 3.134-1.193 14.458-.002 17.59C38.084 75.35 44.967 79 49.571 79 53.488 79 61 75.588 61 73.808c0-.633.673-1.894 1.495-2.802s1.772-3.676 2.111-6.15C66.284 52.615 52.955 44.1 41.673 50.205"/><path fill="#1976D2" fill-opacity=".282" fill-rule="evenodd" d="M0 84.667c0 46.566.338 84.358.75 83.981.413-.376 12.334-12.247 26.493-26.379 16.966-16.934 26.053-26.729 26.654-28.731a471 471 0 0 0 2.226-7.788c1.474-5.331 3.723-6.236 6.312-2.539l1.549 2.211 4.157-3.961c6.584-6.273 9.798-9.877 9.83-11.02.016-.582-1.546-3.674-3.471-6.871S71 77.175 71 76.462c0-2.346 15.329-15.499 21.5-18.448 11.977-5.724 16.114-7.282 22.277-8.388l6.277-1.126 23.973-23.884C158.212 11.48 169 .568 169 .366 169 .165 130.975 0 84.5 0H0zm42.231-35.302c-2.347 1.184-4.935 3.438-5.75 5.008-1.925 3.712-1.93 14.533-.008 18.238C38.036 75.623 45.787 80 49.559 80c3.372 0 11.135-3.781 11.794-5.745.324-.965.982-2.43 1.463-3.255 3.881-6.664 4.025-8.632 1.077-14.722-1.597-3.299-3.285-4.95-6.967-6.816-5.812-2.945-9.005-2.966-14.695-.097"/></svg>