<svg xmlns="http://www.w3.org/2000/svg" width="256" height="256"><path fill="#1976D2" fill-opacity=".016" fill-rule="evenodd" d="M0 128.004v128.004l128.25-.254 128.25-.254.254-127.75L257.008 0H0zm.485.496c0 70.4.119 99.053.265 63.672s.146-92.98 0-128S.485 58.1.485 128.5"/><path fill="#1976D2" fill-opacity=".366" fill-rule="evenodd" d="M0 128.004v128.004l128.25-.254 128.25-.254.254-127.75L257.008 0H0zm.485.496c0 70.4.119 99.053.265 63.672s.146-92.98 0-128S.485 58.1.485 128.5M120.5 46.626c-12.116 2.386-12.58 2.547-12.089 4.205 3.099 10.467 1.75 14.366-13.258 38.324-16.965 27.082-17.686 28.285-16.594 27.667.518-.293 6.116-3.675 12.441-7.517 17.269-10.489 44.369-25.97 46.83-26.751 2.607-.827 2.571-1.585.67 14.446-.815 6.875-1.487 13.911-1.491 15.636l-.009 3.136 11.75-5.898c15.173-7.617 25.558-10.305 37.237-9.639 5.273.301 10.168 1.211 12.772 2.376l4.221 1.889-4.366 7c-15.981 25.624-37.77 60.511-42.937 68.75-3.364 5.363-6.586 9.75-7.161 9.75-1.962 0-13.516-10.086-13.513-11.795.002-.938 7.863-14.305 17.47-29.705s17.117-28.121 16.691-28.269c-.66-.228-10.674 5.014-42.344 22.167-3.123 1.692-5.977 2.778-6.341 2.415-.363-.364.272-7.978 1.413-16.921s1.861-16.473 1.6-16.733-8.015 4.071-17.233 9.625c-20.66 12.45-26.72 15.266-34.34 15.957-5.429.492-6.64.207-13.506-3.187-4.148-2.05-7.764-4.305-8.035-5.012-.272-.707 9.657-17.52 22.064-37.362C84.849 71.339 95 54.83 95 54.494c0-1.351-12.259 6.04-18.344 11.06C63.996 75.997 54.491 90.64 49.43 107.5c-2.323 7.739-2.715 10.891-2.796 22.5-.104 14.849 1.525 22.779 7.291 35.494 10.629 23.444 32.509 41.154 58.075 47.009 9.64 2.208 27.072 2.253 36.5.095 16.634-3.808 28.94-10.784 41.591-23.577 8.585-8.68 10.178-10.895 15.184-21.109 6.825-13.926 8.906-22.649 8.924-37.412.052-41.571-28.744-75.83-69.747-82.98-8.077-1.409-19.226-1.825-23.952-.894"/><path fill="#1976D2" fill-opacity=".089" fill-rule="evenodd" d="M0 128v128h79.947l19.265-19.508c10.596-10.73 20.092-19.771 21.102-20.092 2.675-.849 1.875-1.202-6.379-2.82-29.503-5.78-53.817-27.147-64.383-56.58-2.966-8.262-3.051-8.991-3.034-26 .019-17.135.087-17.695 3.27-26.865 5.63-16.218 14.478-29.164 26.591-38.909 7.916-6.368 18.377-12.804 19.304-11.876.834.834 1.122.348-22.667 38.15-12.114 19.25-21.911 35.611-21.771 36.357.438 2.334 11.624 7.468 17.296 7.938 8.405.697 14.317-1.648 33.459-13.269C119.457 111.929 122.829 110 123.901 110c1.371 0 1.435-1.088-.917 15.471-3.142 22.124-5.163 21.093 17.266 8.811 23.505-12.872 29.511-15.854 30.312-15.054.339.34-7.298 13.299-16.972 28.798-9.675 15.5-17.59 29.024-17.59 30.054 0 1.668 9.056 9.92 10.887 9.92 2.375 0 10.609-11.837 31.556-45.366 13.012-20.827 23.522-37.948 23.357-38.048-3.152-1.902-8.078-2.941-15.832-3.341-12.426-.641-22.39 1.874-37.672 9.507-6.191 3.092-11.528 5.35-11.86 5.017-.333-.333.191-7.609 1.164-16.169s1.473-15.86 1.111-16.222c-.361-.362-4.832 1.727-9.934 4.641-17.716 10.12-28.333 16.367-38.603 22.715-5.68 3.511-10.944 6.244-11.699 6.075-.907-.204 3.235-7.607 12.203-21.809 17.923-28.386 18.765-30.236 17.978-39.536l-.614-7.266 6.311-1.099c10.638-1.853 28.152-1.392 37.201.978 19.786 5.183 38.328 18.489 49.401 35.452 7.196 11.023 10.954 20.701 13.622 35.081.322 1.737 4.021-1.513 20.902-18.365l20.51-20.477.261 87.866c.22 74.001.3 67.707.506-39.884L257 0H0zm.485.5c0 70.4.119 99.053.265 63.672s.146-92.98 0-128S.485 58.1.485 128.5m214.858 2c.003 4.4.179 6.076.39 3.724s.209-5.952-.006-8-.388-.124-.384 4.276m-89.093 85.228c2.063.216 5.438.216 7.5 0 2.063-.215.375-.392-3.75-.392s-5.812.177-3.75.392"/><path fill="#1976D2" fill-opacity=".144" fill-rule="evenodd" d="M0 89c0 48.95.169 89 .375 89s10.556-10.183 23-22.628L46 132.744v-8.26c0-26.461 19.447-56.63 44.71-69.362 8.288-4.177 9.79-7.236-19.326 39.378-8.245 13.2-16.055 25.8-17.355 28l-2.365 4 3.258-3c1.793-1.65 13.348-13.09 25.679-25.422 25.508-25.51 28.005-29.072 27.737-39.578-.084-3.3-.307-6.874-.496-7.943-.483-2.742 5.476-4.384 16.265-4.48l8.606-.077 17.644-17.596C160.06 18.726 168 10.401 168 9.904s.338-.912.75-.921 2.901-2.034 5.529-4.5L179.059 0H0z"/></svg>