<svg xmlns="http://www.w3.org/2000/svg" width="256" height="256"><path fill="#1976D2" fill-opacity=".086" fill-rule="evenodd" d="M0 128.004v128.004l128.25-.254 128.25-.254.254-127.75L257.008 0H0zm.485.496c0 70.4.119 99.053.265 63.672s.146-92.98 0-128S.485 58.1.485 128.5"/><path fill="#1976D2" fill-opacity=".386" fill-rule="evenodd" d="M0 128.004v128.004l128.25-.254 128.25-.254.254-127.75L257.008 0H0zm.485.496c0 70.4.119 99.053.265 63.672s.146-92.98 0-128S.485 58.1.485 128.5m73.97-44.045C69.098 89.811 72.864 99 80.416 99c3.915 0 7.015-2.598 8.058-6.753 1.992-7.934-8.208-13.604-14.019-7.792m38.237.947c-6.667 2.395-17.304 9.422-18.337 12.115C93.842 98.855 104.63 118 105.897 118c.358 0 2.648-2.742 5.089-6.094 7.104-9.755 9.669-11.042 14.22-7.139.939.805 2.907 5.124 4.375 9.598s3.072 8.573 3.567 9.109c.564.61 2.34-.603 4.76-3.25 3.924-4.294 6.54-5.125 10.111-3.214 2.263 1.211 8.888 20.821 9.715 28.755.641 6.144-1.279 9.235-5.734 9.235-3.59 0-5.608-2.451-8.104-9.842-1.144-3.387-2.264-6.158-2.49-6.158s-2.037 1.8-4.025 4c-3.815 4.223-7.48 5.172-10.619 2.75-.89-.687-2.941-5.202-4.556-10.032s-3.154-8.999-3.419-9.265-2.123 1.986-4.126 5.003c-8.105 12.206-11.209 11.074-22.658-8.265-2.985-5.042-5.72-8.835-6.079-8.429-1.112 1.259-2.925 9.929-2.912 13.931.03 9.706 6.058 23.334 13.623 30.798 15.023 14.821 36.274 17.581 53.163 6.904 7.852-4.964 11.762-8.872 15.903-15.895 4.745-8.047 6.277-13.54 6.277-22.5 0-17.506-10.001-33.801-25.478-41.511-5.343-2.662-7.15-3.019-16.5-3.261-9.047-.235-11.442.066-17.308 2.174"/><path fill="#1976D2" fill-opacity=".085" fill-rule="evenodd" d="M0 89.836c0 49.41.298 106.785.662 127.5L1.325 255h40.184l40.246-40.255C103.89 192.605 122 174.213 122 173.873c0-.339-1.71-.891-3.8-1.225-6.278-1.004-15.811-6.435-21.934-12.495-8.788-8.7-13.231-19.411-13.254-31.96-.013-6.679 1.684-15.193 3.027-15.193.441 0 3.792 4.908 7.448 10.906s7.48 11.659 8.498 12.58c3.076 2.784 6.091 1.449 11.262-4.986 2.652-3.3 5.198-6.13 5.657-6.29.459-.159 2.034 3.474 3.499 8.075 3.325 10.443 4.858 12.715 8.576 12.715 2.117 0 3.781-1.071 6.375-4.101 1.931-2.255 3.962-3.822 4.513-3.481.551.34 1.74 3.159 2.643 6.263l1.641 5.645 4.987-4.988 4.987-4.987-3.58-11.075c-2.128-6.583-4.215-11.319-5.144-11.676-3.435-1.318-5.697-.404-9.592 3.877-2.241 2.462-4.441 4.25-4.889 3.973s-1.949-4.204-3.334-8.727c-2.803-9.15-4.577-12.226-7.491-12.988-2.868-.75-5.466 1.492-10.184 8.786-2.304 3.564-4.771 6.479-5.482 6.479-1.612 0-3.941-3.345-9.197-13.213l-4.109-7.712 5.189-4.694c10.952-9.909 26.881-13.757 41.464-10.018 15.387 3.945 27.934 17.329 32.28 34.432l1.345 5.295 40.8-40.791L255 41.509V1.325L217.336.662C196.621.298 139.246 0 89.836 0H0zm76.5-7.681c-3.342 1.828-4.5 4.024-4.5 8.536 0 9.86 12.215 12.697 16.43 3.816 1.885-3.972 1.916-4.653.375-8.035-2.059-4.519-8.076-6.63-12.305-4.317"/><path fill="#1976D2" fill-opacity=".297" fill-rule="evenodd" d="M0 102.245v102.246l41.424-41.415c37.073-37.065 41.538-41.87 42.514-45.745 1.132-4.493 2.36-5.407 3.803-2.83.676 1.208 1.706.619 5.271-3.013l4.431-4.515-2.471-4.588-2.472-4.587 5.38-4.845c5.307-4.779 14.123-9.112 21.262-10.452 2.979-.559 9.893-7.029 44.438-41.581L204.491 0H0zM75.364 82.17c-5.851 2.833-5.655 14.009.293 16.72 6.048 2.755 12.194-.177 13.802-6.584 1.864-7.426-6.809-13.664-14.095-10.136"/></svg>